<?xml version="1.0" standalone="no"?><!DOCTYPE svg PUBLIC "-//W3C//DTD SVG 1.1//EN" "http://www.w3.org/Graphics/SVG/1.1/DTD/svg11.dtd"><svg t="1606504378083" class="icon" viewBox="0 0 1024 1024" version="1.1" xmlns="http://www.w3.org/2000/svg" p-id="6915" xmlns:xlink="http://www.w3.org/1999/xlink" width="200" height="200"><defs><style type="text/css"></style></defs><path d="M746.666667 160a117.333333 117.333333 0 0 1 117.333333 117.333333v469.333334a117.333333 117.333333 0 0 1-117.333333 117.333333H277.333333A117.333333 117.333333 0 0 1 160 746.666667V277.333333A117.333333 117.333333 0 0 1 277.333333 160h469.333334z m-437.333334 64H277.333333a53.333333 53.333333 0 0 0-53.333333 53.333333v469.333334a53.333333 53.333333 0 0 0 53.333333 53.333333h32v-576z m437.333334 0H373.333333v576H746.666667a53.333333 53.333333 0 0 0 53.333333-53.333333V277.333333a53.333333 53.333333 0 0 0-53.333333-53.333333z" fill="#515151" p-id="6916"></path></svg>