<?xml version="1.0" standalone="no"?><!DOCTYPE svg PUBLIC "-//W3C//DTD SVG 1.1//EN" "http://www.w3.org/Graphics/SVG/1.1/DTD/svg11.dtd"><svg t="1606501054720" class="icon" viewBox="0 0 1024 1024" version="1.1" xmlns="http://www.w3.org/2000/svg" p-id="4029" xmlns:xlink="http://www.w3.org/1999/xlink" width="200" height="200"><defs><style type="text/css"></style></defs><path d="M136.84280889 815.50449778c-1.74762667 0-3.49525333 0-5.24288-0.58254223-19.80643555-2.91271111-33.78744889-20.97152-31.45728-40.77795555 18.05880889-169.51978667 78.06065778-294.76636445 177.67537778-372.82702222 71.65269333-56.50659555 162.52928-87.96387555 269.71704888-93.78929778l22.13660445-1.16508445V185.77635555c0-47.76846222 43.69066667-58.25422222 66.99235555-34.95253333l272.04721778 276.70755556c34.36999111 34.95253333 32.62236445 71.07015111-1.74762666 106.02268444L641.90691555 803.27111111c-27.96202667 27.96202667-72.23523555 11.06830222-72.23523555-28.54456889V645.40216889h-27.37948445c-99.61472 0-280.78535111 19.80643555-375.73973333 153.20860444-5.82542222 11.06830222-17.47626667 16.89372445-29.70965333 16.89372445z" fill="#2C2C2C" p-id="4030"></path></svg>